<?xml version="1.0" encoding="UTF-8"?><svg xmlns="http://www.w3.org/2000/svg" viewBox="0 0 512 512"><rect width="512" height="512" fill="#1D70B8"/><path d="M178.57,176.91c0-10.19,8.26-18.44,18.44-18.44s18.44,8.26,18.44,18.44-8.26,18.44-18.44,18.44-18.44-8.26-18.44-18.44ZM147.39,225.07c10.19,0,18.44-8.26,18.44-18.44s-8.26-18.44-18.44-18.44-18.44,8.26-18.44,18.44,8.26,18.44,18.44,18.44ZM114.56,273.94c10.19,0,18.44-8.26,18.44-18.44s-8.26-18.44-18.44-18.44-18.44,8.26-18.44,18.44,8.26,18.44,18.44,18.44ZM333.38,176.91c0-10.19-8.26-18.44-18.44-18.44s-18.44,8.26-18.44,18.44c0,10.19,8.26,18.44,18.44,18.44s18.44-8.26,18.44-18.44ZM383,206.63c0-10.19-8.26-18.44-18.44-18.44s-18.44,8.26-18.44,18.44c0,10.19,8.26,18.44,18.44,18.44s18.44-8.26,18.44-18.44ZM415.82,255.5c0-10.19-8.26-18.44-18.44-18.44s-18.44,8.26-18.44,18.44c0,10.19,8.26,18.44,18.44,18.44,10.19,0,18.44-8.26,18.44-18.44ZM274.44,242.59c0-10.19-8.26-18.44-18.44-18.44-10.19,0-18.44,8.26-18.44,18.44,0,10.19,8.26,18.44,18.44,18.44s18.44-8.26,18.44-18.44ZM263.44,137.42c.93-.7,1.76-1.53,2.46-2.46l23.46,12.32v-34.58s-23.43,7.43-23.43,7.43c-.68-.92-1.49-1.73-2.4-2.43l9.43-29.7h-33.92l9.43,29.7c-.91.7-1.71,1.51-2.4,2.43l-23.43-7.43v34.58s23.46-12.32,23.46-12.32c.7.93,1.53,1.76,2.46,2.46l-13.36,40.3c-4.7,14.18,5.86,28.81,20.8,28.81h0c14.94,0,25.51-14.63,20.8-28.81l-13.36-40.3ZM229.19,279.32s17.13,19.06,20.87,30.69c-11.21-.36-21.29-2.54-32.37-14.11l3.76,43.06c10.2-14.32,22.17-20.49,28.8-19.25-.67,15.43-2.29,34.07-29.31,36.53-18.85,1.64-33.99-7.62-35.56-19.08-1.87-13.16,9.99-21.87,18.94-8.01,6.99-22.93-12.32-30.55-24.73-16.36,9.55-22.63,9.3-38.71-11.95-54.96-15.24,20.26-13.08,37.01,5.81,55.87-12.3-6.81-31.41.36-20.15,23.34,5.88-14.3,18.5-11.1,21.14,1.2,1.76,8.69-3.51,18.91-14.97,21.01-9.41,1.72-23.89-4.7-35.5-29.71,6.53.17,12.26,3.46,19.67,8.57l-12.18-40.6c-3.07,11.39-6.99,18.88-11.15,22.92-2.79-8.2-2.39-14.15.1-26.93l-25.17,8.96c13.37,18.24,26.33,43.84,36.95,88.55,37.45-5.35,79.38-8.35,123.8-8.35h0c44.42,0,86.35,3.01,123.8,8.35,10.62-44.71,23.58-70.31,36.95-88.55l-25.17-8.96c2.5,12.78,2.9,18.73.1,26.93-4.16-4.04-8.08-11.53-11.15-22.92l-12.18,40.6c7.41-5.1,13.14-8.4,19.67-8.57-11.61,25.01-26.1,31.43-35.5,29.71-11.46-2.1-16.73-12.32-14.97-21.01,2.65-12.3,15.26-15.5,21.14-1.2,11.25-22.99-7.85-30.15-20.15-23.34,18.89-18.86,21.06-35.61,5.81-55.87-21.25,16.25-21.5,32.33-11.95,54.96-12.41-14.19-31.72-6.57-24.73,16.36,8.94-13.86,20.81-5.15,18.94,8.01-1.57,11.46-16.71,20.72-35.56,19.08-27.02-2.45-28.64-21.1-29.31-36.53,6.63-1.24,18.6,4.93,28.8,19.25l3.76-43.06c-11.09,11.57-21.16,13.75-32.37,14.11,3.74-11.63,20.87-30.69,20.87-30.69h-53.62Z" fill="#fff"/></svg>